<?xml version="1.0" encoding="utf-8"?>
<!-- Generator: Adobe Illustrator 23.1.1, SVG Export Plug-In . SVG Version: 6.00 Build 0)  -->
<svg version="1.1" id="d" xmlns="http://www.w3.org/2000/svg" xmlns:xlink="http://www.w3.org/1999/xlink" x="0px" y="0px"
	 viewBox="0 0 141.7 68" style="enable-background:new 0 0 141.7 68;" xml:space="preserve">
<style type="text/css">
	.st0{fill:#D26497;}
	.st1{fill:#F7941D;}
	.st2{fill:#7ACCC8;}
	.st3{fill:#A5C330;}
	.st4{fill-rule:evenodd;clip-rule:evenodd;fill:#A5C330;}
	.st5{fill:#D31820;}
	.st6{fill:#F15A31;}
	.st7{fill:#198FB1;}
	.st8{fill-rule:evenodd;clip-rule:evenodd;fill:#198FB1;}
	.st9{fill:#006284;}
</style>
<g>
	<g>
		<g>
			<g>
				<path class="st0" d="M12.6,40.3c0,0.6-0.4,1-0.9,1H9.8c-0.5,0-0.9-0.5-0.9-1v-2.6c0-0.6,0.4-1,0.9-1h1.9c0.5,0,0.9,0.5,0.9,1
					C12.6,37.7,12.6,40.3,12.6,40.3z"/>
				<ellipse class="st0" cx="10.8" cy="34.7" rx="1.3" ry="1.4"/>
			</g>
			<g>
				<path class="st0" d="M25.9,28.6c0,1-0.7,1.8-1.6,1.8h-4.5c-0.9,0-1.6-0.8-1.6-1.8l0.6-4.7c0-1,0.7-1.8,1.6-1.8h3.3
					c0.9,0,1.6,0.8,1.6,1.8L25.9,28.6z"/>
				<ellipse class="st0" cx="22" cy="18.5" rx="2.3" ry="2.6"/>
			</g>
			<g>
				<path class="st0" d="M31.7,46.5c0,0.4-0.3,0.8-0.7,0.8h-1.9c-0.4,0-0.7-0.3-0.7-0.8l0.2-2c0-0.4,0.3-0.8,0.7-0.8h1.4
					c0.4,0,0.7,0.3,0.7,0.8L31.7,46.5z"/>
				<ellipse class="st0" cx="30.1" cy="42.3" rx="1" ry="1.1"/>
			</g>
			<g>
				<path class="st0" d="M29,50.5c0,0.2-0.2,0.4-0.4,0.4h-0.8c-0.2,0-0.4-0.2-0.4-0.4v-1.1c0-0.2,0.2-0.4,0.4-0.4h0.8
					c0.2,0,0.4,0.2,0.4,0.4V50.5z"/>
				<ellipse class="st0" cx="28.2" cy="48.1" rx="0.6" ry="0.6"/>
			</g>
			<g>
				<path class="st0" d="M47.2,20.4c0,0.5-0.4,0.9-0.8,0.9h-2.2c-0.4,0-0.8-0.4-0.8-0.9l0.3-2.3c0-0.5,0.4-0.9,0.8-0.9h1.7
					c0.5,0,0.8,0.4,0.8,0.9L47.2,20.4z"/>
				<ellipse class="st0" cx="45.3" cy="15.4" rx="1.1" ry="1.3"/>
			</g>
		</g>
		<g>
			<g>
				<path class="st1" d="M19.1,21.9c0,0.3-0.2,0.5-0.4,0.5h-1.2c-0.2,0-0.4-0.2-0.4-0.5l0.2-1.3c0-0.3,0.2-0.5,0.4-0.5h0.9
					c0.2,0,0.4,0.2,0.4,0.5L19.1,21.9z"/>
				<ellipse class="st1" cx="18.1" cy="19.2" rx="0.6" ry="0.7"/>
			</g>
			<g>
				<path class="st1" d="M19.5,55.7c0,0.6-0.4,1.1-1,1.1h-2c-0.5,0-1-0.5-1-1.1v-2.8c0-0.6,0.4-1.1,1-1.1h2c0.5,0,1,0.5,1,1.1V55.7z
					"/>
				<ellipse class="st1" cx="17.6" cy="49.7" rx="1.4" ry="1.5"/>
			</g>
			<g>
				<path class="st1" d="M26.2,15.7c0,0.3-0.2,0.5-0.5,0.5h-1c-0.3,0-0.5-0.2-0.5-0.5v-1.4c0-0.3,0.2-0.5,0.5-0.5h1
					c0.3,0,0.5,0.2,0.5,0.5V15.7z"/>
				<ellipse class="st1" cx="25.2" cy="12.7" rx="0.7" ry="0.8"/>
			</g>
			<g>
				<path class="st1" d="M36.4,23.7c0,0.8-0.6,1.5-1.4,1.5h-2.8c-0.8,0-1.4-0.7-1.4-1.5v-4c0-0.8,0.6-1.5,1.4-1.5H35
					c0.8,0,1.4,0.7,1.4,1.5V23.7z"/>
				<ellipse class="st1" cx="33.6" cy="15.2" rx="2" ry="2.2"/>
			</g>
			<g>
				<path class="st1" d="M39.5,41.7c0,0.7-0.5,1.3-1.2,1.3H35c-0.7,0-1.2-0.6-1.2-1.3l0.4-3.4c0-0.7,0.5-1.3,1.2-1.3h2.5
					c0.7,0,1.2,0.6,1.2,1.3L39.5,41.7z"/>
				<ellipse class="st1" cx="36.7" cy="34.4" rx="1.7" ry="1.9"/>
			</g>
		</g>
		<g>
			<path class="st1" d="M100.9,56.6h-1.6l-0.2,1.2h1.3l-0.1,0.6h-1.4l-0.3,1.4h1.8l-0.1,0.6h-2.5l0.9-4.4h2.4L100.9,56.6z"/>
			<path class="st1" d="M105.8,56.7c-0.2-0.2-0.4-0.3-0.7-0.3c-0.4,0-0.7,0.2-1,0.6c-0.4,0.5-0.6,1.4-0.6,1.9c0,0.6,0.3,1,0.9,1
				c0.3,0,0.5-0.1,0.9-0.3l0.3,0.5c-0.4,0.3-0.8,0.4-1.3,0.4c-0.9,0-1.5-0.6-1.5-1.6c0-0.7,0.3-1.6,0.7-2.1c0.4-0.6,1.1-0.9,1.7-0.9
				c0.4,0,0.8,0.1,1,0.4L105.8,56.7z"/>
			<path class="st1" d="M110.9,59c-0.1,0.6-0.2,0.9-0.5,1.1c-0.2,0.2-0.6,0.4-1.2,0.4c-0.8,0-1.3-0.3-1.3-1c0-0.1,0-0.3,0.1-0.5
				l0.6-3h0.7l-0.6,2.9c-0.1,0.3-0.1,0.5-0.1,0.6c0,0.3,0.3,0.4,0.6,0.4c0.4,0,0.7-0.2,0.8-0.4c0.1-0.1,0.1-0.2,0.2-0.5l0.6-2.9h0.7
				L110.9,59z"/>
			<path class="st1" d="M115.5,60.4l-0.1-1.2H114l-0.6,1.2h-0.8L115,56h0.8l0.5,4.4H115.5z M115.3,57.6c0-0.2-0.1-0.9-0.1-0.9
				s-0.2,0.4-0.3,0.7l-0.6,1.2h1.1L115.3,57.6z"/>
			<path class="st1" d="M121.2,59.8c-0.4,0.4-0.9,0.6-1.7,0.6h-1.1l0.9-4.4h1c0.7,0,1.1,0.1,1.4,0.4c0.2,0.3,0.4,0.6,0.4,1.2
				C122,58.3,121.7,59.3,121.2,59.8z M121.1,56.9c-0.1-0.2-0.4-0.3-0.7-0.3h-0.5l-0.7,3.3h0.4c0.5,0,0.8-0.2,1-0.5
				c0.4-0.6,0.5-1.4,0.5-1.8C121.2,57.3,121.2,57.1,121.1,56.9z"/>
			<path class="st1" d="M126.6,60.2c-0.3,0.2-0.7,0.3-1.1,0.3c-1,0-1.4-0.6-1.4-1.6c0-1.1,0.5-2.1,1-2.5c0.3-0.3,0.7-0.5,1.3-0.5
				c0.9,0,1.4,0.6,1.4,1.6C127.8,58.6,127.4,59.7,126.6,60.2z M126.3,56.5c-0.4,0-0.7,0.2-0.9,0.5c-0.4,0.5-0.6,1.4-0.6,2.1
				c0,0.6,0.3,0.9,0.8,0.9c0.3,0,0.6-0.1,0.8-0.4c0.4-0.5,0.7-1.5,0.7-2.2C127,56.8,126.8,56.5,126.3,56.5z"/>
			<path class="st1" d="M131.9,58.5C131.8,58.5,131.8,58.5,131.9,58.5c0.1,0.1,0.2,0.3,0.3,0.6c0.2,0.3,0.5,1.2,0.5,1.3l-0.8,0.1
				c0-0.1-0.2-0.6-0.3-0.8c-0.2-0.7-0.4-0.9-0.5-1.1c-0.1-0.1-0.1-0.1-0.3-0.1l-0.4,1.9h-0.7l0.9-4.4h1.3c0.8,0,1.2,0.4,1.2,1
				C133.1,57.8,132.6,58.4,131.9,58.5z M131.7,56.6h-0.5l-0.3,1.4h0.3c0.4,0,0.6,0,0.8-0.2c0.2-0.1,0.3-0.4,0.3-0.7
				C132.4,56.7,132.2,56.6,131.7,56.6z"/>
		</g>
		<g>
			<g>
				<path class="st2" d="M21.3,37c0,0.5-0.4,0.9-0.8,0.9h-1.6c-0.4,0-0.8-0.4-0.8-0.9v-2.3c0-0.5,0.4-0.9,0.8-0.9h1.6
					c0.4,0,0.8,0.4,0.8,0.9V37z"/>
				<ellipse class="st2" cx="19.7" cy="32.2" rx="1.1" ry="1.2"/>
			</g>
			<g>
				<path class="st2" d="M26.7,10c0,0.4-0.3,0.7-0.6,0.7h-1.7c-0.3,0-0.5-0.3-0.5-0.7l0.2-1.7c0-0.4,0.3-0.7,0.6-0.7h1.2
					c0.3,0,0.6,0.3,0.6,0.7L26.7,10z"/>
				<ellipse class="st2" cx="25.3" cy="6.3" rx="0.9" ry="0.9"/>
			</g>
			<g>
				<path class="st2" d="M27.2,55.3c0,0.4-0.3,0.7-0.6,0.7h-1.3c-0.4,0-0.6-0.3-0.6-0.7v-1.8c0-0.4,0.3-0.7,0.6-0.7h1.3
					c0.4,0,0.6,0.3,0.6,0.7V55.3z"/>
				<ellipse class="st2" cx="25.9" cy="51.4" rx="0.9" ry="1"/>
			</g>
			<g>
				<path class="st2" d="M33.7,44.2c0,0.2-0.2,0.4-0.4,0.4h-0.8c-0.2,0-0.4-0.2-0.4-0.4v-1.1c0-0.2,0.2-0.4,0.4-0.4h0.8
					c0.2,0,0.4,0.2,0.4,0.4V44.2z"/>
				<ellipse class="st2" cx="32.9" cy="41.8" rx="0.5" ry="0.6"/>
			</g>
			<g>
				<path class="st2" d="M52.5,26.8c0,0.8-0.6,1.4-1.3,1.4h-2.7c-0.7,0-1.3-0.6-1.3-1.4v-3.7c0-0.8,0.6-1.4,1.3-1.4h2.7
					c0.7,0,1.3,0.6,1.3,1.4V26.8z"/>
				<ellipse class="st2" cx="49.8" cy="18.8" rx="1.8" ry="2"/>
			</g>
		</g>
		<g>
			<g>
				<path class="st3" d="M12.4,31.7c0,0.6-0.4,1-0.9,1H9c-0.5,0-0.9-0.5-0.9-1l0.3-2.6c0-0.6,0.4-1,0.9-1h1.9c0.5,0,0.9,0.5,0.9,1
					L12.4,31.7z"/>
				<ellipse class="st3" cx="10.2" cy="26.1" rx="1.3" ry="1.4"/>
			</g>
			<g>
				<path class="st3" d="M22.4,46.6c0,0.7-0.5,1.2-1.1,1.2h-3c-0.6,0-1.1-0.5-1.1-1.2l0.4-3.1c0-0.7,0.5-1.2,1.1-1.2h2.2
					c0.6,0,1.1,0.5,1.1,1.2L22.4,46.6z"/>
				<ellipse class="st3" cx="19.8" cy="40" rx="1.5" ry="1.7"/>
			</g>
			<g>
				<path class="st3" d="M23.8,13.7c0,0.6-0.4,1-0.9,1h-2.5c-0.5,0-0.9-0.5-0.9-1l0.3-2.6c0-0.6,0.4-1,0.9-1h1.9
					c0.5,0,0.9,0.5,0.9,1L23.8,13.7z"/>
				<ellipse class="st3" cx="21.7" cy="8.2" rx="1.3" ry="1.4"/>
			</g>
			<g>
				<path class="st3" d="M44.6,27.7c0,1-0.7,1.8-1.6,1.8h-4.5c-0.9,0-1.6-0.8-1.6-1.8l0.6-4.7c0-1,0.7-1.8,1.6-1.8h3.3
					c0.9,0,1.6,0.8,1.6,1.8L44.6,27.7z"/>
				<ellipse class="st3" cx="40.7" cy="17.6" rx="2.3" ry="2.6"/>
			</g>
			<path class="st4" d="M9,14.7c0-0.1,0.1-0.2,0.1-0.2c0-0.3-0.2-0.5-0.4-0.5c-0.1,0-0.2,0-0.3,0.1c-0.1-0.3-0.2-0.4-0.4-0.4
				c-0.2,0-0.4,0.2-0.4,0.4c0,0.1,0,0.1,0,0.2H7.5c-0.2,0-0.4,0.2-0.4,0.4c0,0.1,0,0.1,0,0.2C7,15,6.9,15.2,6.9,15.5
				c0,0.4,0.3,0.8,0.7,0.8c0.1,0,0.2,0,0.3-0.1v1.7h0.6v-1.8h0.1c0.4,0,0.7-0.3,0.7-0.8C9.3,15,9.2,14.8,9,14.7z"/>
		</g>
		<g>
			<g>
				<path class="st5" d="M27.4,48.5c0,0.7-0.5,1.2-1.1,1.2h-2.2c-0.6,0-1.1-0.5-1.1-1.2v-3.1c0-0.7,0.5-1.2,1.1-1.2h2.2
					c0.6,0,1.1,0.5,1.1,1.2V48.5z"/>
				<ellipse class="st5" cx="25.2" cy="41.8" rx="1.5" ry="1.7"/>
			</g>
			<g>
				<path class="st5" d="M31.2,16.5c0,0.7-0.5,1.3-1.2,1.3h-2.3c-0.6,0-1.2-0.6-1.2-1.3v-3.3c0-0.7,0.5-1.3,1.2-1.3H30
					c0.6,0,1.2,0.6,1.2,1.3V16.5z"/>
				<ellipse class="st5" cx="28.9" cy="9.5" rx="1.6" ry="1.8"/>
			</g>
			<g>
				<path class="st5" d="M37.9,17.7c0,0.3-0.2,0.5-0.4,0.5h-1.2c-0.2,0-0.4-0.2-0.4-0.5l0.2-1.2c0-0.3,0.2-0.5,0.4-0.5h0.9
					c0.2,0,0.4,0.2,0.4,0.5L37.9,17.7z"/>
				<ellipse class="st5" cx="36.9" cy="15" rx="0.6" ry="0.7"/>
			</g>
			<g>
				<path class="st5" d="M44,38.7c0,0.7-0.5,1.2-1.1,1.2h-2.3c-0.6,0-1.1-0.6-1.1-1.2v-3.2c0-0.7,0.5-1.2,1.1-1.2h2.3
					c0.6,0,1.1,0.6,1.1,1.2V38.7z"/>
				<ellipse class="st5" cx="41.7" cy="31.8" rx="1.6" ry="1.8"/>
			</g>
			<g>
				<path class="st5" d="M46.8,25.9c0,0.3-0.2,0.5-0.5,0.5h-1c-0.3,0-0.5-0.2-0.5-0.5v-1.4c0-0.3,0.2-0.5,0.5-0.5h1
					c0.3,0,0.5,0.2,0.5,0.5V25.9z"/>
				<ellipse class="st5" cx="45.8" cy="22.9" rx="0.7" ry="0.8"/>
			</g>
		</g>
		<g>
			<g>
				<path class="st6" d="M17.1,26.9c0,0.7-0.5,1.2-1.1,1.2h-3c-0.6,0-1.1-0.5-1.1-1.2l0.4-3.1c0-0.7,0.5-1.2,1.1-1.2h2.2
					c0.6,0,1.1,0.5,1.1,1.2L17.1,26.9z"/>
				<ellipse class="st6" cx="14.5" cy="20.1" rx="1.6" ry="1.7"/>
			</g>
			<g>
				<path class="st6" d="M25.3,61.1c0,0.8-0.6,1.5-1.3,1.5h-3.7c-0.7,0-1.3-0.7-1.3-1.5l0.5-3.8c0-0.8,0.6-1.5,1.3-1.5h2.7
					c0.7,0,1.3,0.7,1.3,1.5L25.3,61.1z"/>
				<ellipse class="st6" cx="22.1" cy="52.9" rx="1.9" ry="2.1"/>
			</g>
			<g>
				<path class="st6" d="M26,38c0,0.5-0.4,1-0.9,1h-2.4c-0.5,0-0.9-0.4-0.9-1l0.3-2.5c0-0.5,0.4-1,0.9-1h1.8c0.5,0,0.9,0.4,0.9,1
					L26,38z"/>
				<ellipse class="st6" cx="23.9" cy="32.7" rx="1.2" ry="1.4"/>
			</g>
			<g>
				<path class="st6" d="M29.7,24.5c0,0.5-0.4,0.9-0.8,0.9h-2.2c-0.4,0-0.8-0.4-0.8-0.9l0.3-2.3c0-0.5,0.4-0.9,0.8-0.9h1.7
					c0.5,0,0.8,0.4,0.8,0.9L29.7,24.5z"/>
				<ellipse class="st6" cx="27.7" cy="19.5" rx="1.1" ry="1.3"/>
			</g>
			<g>
				<path class="st6" d="M33.2,12.6c0,0.2-0.2,0.4-0.4,0.4h-1.1c-0.2,0-0.4-0.2-0.4-0.4l0.1-1.1c0-0.2,0.2-0.4,0.4-0.4h0.8
					c0.2,0,0.4,0.2,0.4,0.4L33.2,12.6z"/>
				<ellipse class="st6" cx="32.2" cy="10.1" rx="0.6" ry="0.6"/>
			</g>
			<g>
				<path class="st6" d="M36.1,31.3c0,0.4-0.3,0.8-0.7,0.8h-1.9c-0.4,0-0.7-0.4-0.7-0.8l0.3-2c0-0.4,0.3-0.8,0.7-0.8h1.4
					c0.4,0,0.7,0.4,0.7,0.8L36.1,31.3z"/>
				<ellipse class="st6" cx="34.4" cy="27" rx="1" ry="1.1"/>
			</g>
		</g>
		<g>
			<g>
				<path class="st7" d="M15.3,54.1c0,0.4-0.3,0.6-0.6,0.6h-1.6c-0.3,0-0.6-0.3-0.6-0.6l0.2-1.7c0-0.4,0.3-0.6,0.6-0.6h1.2
					c0.3,0,0.6,0.3,0.6,0.6L15.3,54.1z"/>
				<ellipse class="st7" cx="14" cy="50.5" rx="0.8" ry="0.9"/>
			</g>
			<g>
				<path class="st7" d="M33.5,38.9c0,1.1-0.8,1.9-1.7,1.9h-3.5c-1,0-1.7-0.9-1.7-1.9V34c0-1.1,0.8-1.9,1.7-1.9h3.5
					c1,0,1.7,0.9,1.7,1.9V38.9z"/>
				<ellipse class="st7" cx="30" cy="28.3" rx="2.4" ry="2.7"/>
			</g>
			<g>
				<path class="st7" d="M39.7,32.8c0,0.2-0.2,0.4-0.4,0.4h-0.8c-0.2,0-0.4-0.2-0.4-0.4v-1.1c0-0.2,0.2-0.4,0.4-0.4h0.8
					c0.2,0,0.4,0.2,0.4,0.4V32.8z"/>
				<ellipse class="st7" cx="38.9" cy="30.5" rx="0.5" ry="0.6"/>
			</g>
			<g>
				<path class="st7" d="M50.4,32.1c0,0.3-0.2,0.5-0.4,0.5h-0.9c-0.2,0-0.4-0.2-0.4-0.5v-1.2c0-0.3,0.2-0.5,0.4-0.5H50
					c0.2,0,0.4,0.2,0.4,0.5V32.1z"/>
				<ellipse class="st7" cx="49.6" cy="29.4" rx="0.6" ry="0.7"/>
			</g>
			<g>
				<g>
					<path class="st7" d="M17.8,36.8c0,0.6-0.5,1.1-1,1.1h-2.9c-0.6,0-1-0.5-1-1.1l0.4-2.9c0-0.6,0.5-1.1,1-1.1h2.1
						c0.6,0,1,0.5,1,1.1L17.8,36.8z"/>
					<ellipse class="st7" cx="15.3" cy="30.4" rx="1.5" ry="1.6"/>
				</g>
				<g>
					<path class="st7" d="M18.7,16.8c0,0.6-0.4,1-0.9,1h-1.9c-0.5,0-0.9-0.5-0.9-1v-2.6c0-0.6,0.4-1,0.9-1h1.9c0.5,0,0.9,0.5,0.9,1
						V16.8z"/>
					<ellipse class="st7" cx="16.8" cy="11.2" rx="1.3" ry="1.4"/>
				</g>
				<g>
					<path class="st7" d="M27.6,31.5c0,0.2-0.2,0.4-0.4,0.4h-0.8c-0.2,0-0.4-0.2-0.4-0.4v-1.1c0-0.2,0.2-0.4,0.4-0.4h0.8
						c0.2,0,0.4,0.2,0.4,0.4V31.5z"/>
					<ellipse class="st7" cx="26.8" cy="29.1" rx="0.5" ry="0.6"/>
				</g>
				<g>
					<path class="st7" d="M48.3,34c0,0.5-0.4,1-0.9,1H45c-0.5,0-0.9-0.4-0.9-1l0.3-2.5c0-0.5,0.4-1,0.9-1h1.8c0.5,0,0.9,0.4,0.9,1
						L48.3,34z"/>
					<ellipse class="st7" cx="46.2" cy="28.7" rx="1.2" ry="1.4"/>
				</g>
				<g id="uw7zeJ_5_">
					<g>
						<path class="st8" d="M7.8,17c0.4,0,0.5-0.2,0.5-0.4c0-0.4-0.6-0.6-0.8-0.1c0-0.1,0-0.1-0.1-0.1c-0.1-0.4-0.3-0.8-0.7-0.8
							c-0.5,0-0.9,0.4-0.9,0.9c0,0.1-0.1,0.1-0.2,0.1c0,0.1,0,0.1,0.1,0.2c-0.1,0-0.2,0-0.2,0.1c0,0.2,0.1,0.3,0.2,0.3
							c-0.1,0.1-0.2,0.4,0,0.4c0.3,0.1,0.6-0.1,0.7-0.2c0.2,0.1,0.4,0,0.6,0c-0.2,0.2-0.1,0.3,0.1,0.4s0.5,0,0.5-0.2
							c0-0.1-0.1-0.2-0.2-0.2C7.4,17.3,7.7,17.1,7.8,17"/>
					</g>
				</g>
			</g>
		</g>
		<g>
			<g>
				<path class="st9" d="M58.4,23.6c0.2-1.5,0.3-2.5,0.3-3.1s0.4-1.3,1.2-1.3c0.3,0,0.7,0,1.1,0c0.2,0,0.7,0,1.2,0s1,0,1.3,0
					c1.1,0,3.9,0.1,4.8,3.1c0.2,0.7,0.3,1.5,0.3,2.1c0,1.5-0.4,3.3-0.9,4.7c-1.8,5-5.4,5.2-6.8,5.2c-0.2,0-0.6,0-1.1,0s-1,0-1.2,0
					s-0.3,0-0.5,0H58h-0.1c-0.6,0-1.1-0.5-1-1.1c0.2-0.6,0.4-1.8,0.7-3.5c0.2-1,0.3-2.1,0.5-3.1C58,25.6,58.2,24.6,58.4,23.6z
					 M59.7,31c-0.1,0.5-0.1,0.8-0.1,1.1c0,0.8,0.3,0.9,1.3,0.9s2.6-0.3,3.8-2.7c0.4-0.8,1.1-3.2,1.1-5.4c0-3.2-1.3-4.2-3.6-4.2
					c-0.3,0-0.5,0-0.7,0.1h-0.1l0,0h-0.1c-0.1,0.7-0.2,1.3-0.3,2c-0.2,1.2-0.4,2.8-0.7,4.1C60.1,28.1,59.9,29.8,59.7,31z"/>
				<path class="st9" d="M72.9,33.2c0.6,0,1.2-0.2,1.6-0.4s1,0.1,0.9,0.6s-0.5,0.9-1.1,1.2c-0.4,0.1-1,0.2-1.7,0.2
					c-3.1-0.1-3.8-2.1-3.9-4.8c0-2.3,1-4.2,1.6-5.1c1.2-1.8,3-2.5,4.2-2.5c1.9,0,2.8,1.1,2.8,2.6c0,0.6-0.2,1.4-0.6,2.2
					c-0.4,0.8-1.2,1.4-1.8,1.8c-1.1,0.7-2.3,0.8-3.6,0.8c0,0.1,0,0.4,0,0.8C71.1,31.5,71.4,33.2,72.9,33.2z M71.2,29.1
					c1-0.2,2-0.9,2.9-2c0.4-0.5,0.7-1.2,0.7-2.1s-0.4-1.4-0.8-1.4c-0.3,0-0.9,0.1-1.6,1.2C71.8,25.7,71.4,27.3,71.2,29.1z"/>
				<path class="st9" d="M78,22.9c0.1-0.3,0.5-0.6,0.9-0.6c0.3-2.3,0.9-3.4,1.9-4.4c0.8-0.7,1.7-0.9,2.5-0.9c0.5,0,1,0.5,0.8,1
					s-0.8,0.6-1.3,0.7c-0.9,0.1-1.3,1.7-1.6,3.7h0.5c0.1,0,0.1,0,0.2,0h0.4c0.5,0,0.9,0.4,0.9,0.8c-0.1,0.4-0.6,0.7-1.1,0.7
					c-0.2,0-0.8,0-1,0h-0.2c-0.2,1.1-0.3,2.2-0.5,3.4c-0.2,1.2-0.3,2.3-0.5,3.5c0,0.2,0,0.3-0.1,0.5c0,0.2-0.1,0.4-0.1,0.5
					c-0.1,0.3-0.1,0.7-0.2,1c-0.3,2.1-1.3,6.5-4.9,6.7c-0.5,0-0.9-0.6-0.8-1c0.2-0.5,0.7-0.7,1.2-0.7c0.5-0.1,0.9-0.6,1.1-0.9
					c0.5-0.8,0.9-3,1.3-5.6c0.2-1.2,0.3-2.5,0.5-3.7c0.2-1.3,0.3-2.5,0.5-3.7C78.1,23.6,77.9,23.3,78,22.9z"/>
				<path class="st9" d="M86.2,33.2c0.6,0,1.2-0.2,1.6-0.4s1,0.1,0.9,0.6s-0.5,0.9-1.1,1.2c-0.4,0.1-1,0.2-1.7,0.2
					c-3.1-0.1-3.8-2.1-3.9-4.8c0-2.3,1-4.2,1.6-5.1c1.2-1.8,2.9-2.5,4.2-2.5c1.9,0,2.8,1.1,2.8,2.6c0,0.6-0.2,1.4-0.6,2.2
					c-0.4,0.8-1.2,1.4-1.8,1.8c-1.1,0.7-2.3,0.8-3.6,0.8c0,0.1,0,0.4,0,0.8C84.5,31.5,84.7,33.2,86.2,33.2z M84.6,29.1
					c1-0.2,2-0.9,2.9-2c0.4-0.5,0.7-1.2,0.7-2.1s-0.4-1.4-0.8-1.4c-0.3,0-0.9,0.1-1.6,1.2C85.2,25.7,84.7,27.3,84.6,29.1z"/>
				<path class="st9" d="M91.4,26.7c0.1-0.9,0.3-2,0.3-2.8v-0.1c0-0.5,0.2-1.1,0.8-1.1c0.2,0,0.3,0,0.5-0.1h0.1
					c0.6-0.1,1.2,0.4,1.1,0.9c0,0.3,0.1-0.2,0,0.3c0.1-0.1,0.2-0.3,0.3-0.4c0.7-0.7,1.6-1.1,2.7-1.1s2.6,0.5,2.6,2.3
					c0,0.4-0.1,0.9-0.2,1.9c-0.1,0.5-0.1,1-0.2,1.5s-0.2,1-0.2,1.5c-0.1,0.9-0.4,2.7-0.4,3.7c0,0.6-0.7,1.1-1.3,1.1h-0.2
					c-0.6,0-1.1-0.5-1-1c0.2-0.7,0.4-1.7,0.6-3.8l0.2-1.4c0.2-1,0.3-1.9,0.3-2.5c0-1-0.3-1.5-1-1.5s-1.5,0.7-2,1.4
					c-0.5,0.9-0.8,2.5-0.9,3.6l-0.4,2.6C93,32.4,93,32.8,93,33.2c0,0.6-0.7,1.1-1.3,1.1h-0.1c-0.6,0-1.1-0.5-1-1
					c0.2-0.8,0.3-1.6,0.4-2.5L91.4,26.7z"/>
				<path class="st9" d="M102.2,28.9c-0.5-0.4-1.6-1.2-1.6-2.5c0-1.2,0.7-2.2,1.5-3.1c0.9-0.8,2.3-1,3-1c0.5,0,0.9,0,1.2,0.2l0,0
					c0.6,0.2,0.9,0.8,0.7,1.3c-0.1,0.3-0.5,0.5-0.9,0.5c-0.2,0-0.4,0-0.6-0.2l0,0c-0.3-0.2-0.6-0.3-0.9-0.3c-1.1,0-1.7,1-1.7,1.9
					c0,1,0.6,1.4,1.2,1.8l0.9,0.7c0.6,0.4,1.4,1.1,1.4,2.3c0,0.9-0.4,2.2-1.5,3.1c-1,0.9-2.3,1-3.2,1c-0.5,0-1-0.1-1.3-0.2
					c-0.6-0.2-1-0.7-0.9-1.2c0.2-0.7,0.9-1,1.5-0.6l0,0c0.3,0.2,0.7,0.3,1.4,0.3c1.2,0,1.8-0.9,1.8-1.8c0-0.8-0.4-1.2-0.9-1.5
					L102.2,28.9z"/>
				<path class="st9" d="M115.7,23.5c0.9,1.1,1,2.4,1,3c0,3.4-1.8,8.2-5.8,8.2c-1,0-2-0.3-2.7-1.1c-0.4-0.5-1.1-1.4-1.1-3.3
					c0-3.5,1.9-7.9,5.9-7.9C114.1,22.3,115.1,22.7,115.7,23.5z M113.7,24.4c-0.2-0.2-0.6-0.6-1.1-0.6c-2.5,0-3.1,5-3.1,6.6
					c0,2,0.7,2.7,1.5,2.7c2.8,0,3.2-5.8,3.2-6.8C114.1,25.8,114.1,24.9,113.7,24.4z"/>
				<path class="st9" d="M118,26.4c0.2-1.2,0.2-1.9,0.2-2.4s0.3-1.1,0.9-1.2c0.2,0,0.3,0,0.5-0.1l0,0c0.6-0.1,1.2,0.3,1.2,0.8
					c0,0.1,0,0.3,0,0.4s-0.1,0.2-0.1,0.3c0.3-0.5,0.6-0.9,1-1.2c0.3-0.2,0.7-0.4,1-0.6c0.7-0.2,1.2,0.4,1,1s-0.8,0.9-1.5,1.1l0,0
					c-0.7,0.2-1.6,1.1-2,3.2c-0.3,1.1-0.7,3.9-0.8,5.3c-0.1,0.6-0.6,1.2-1.3,1.1H118c-0.6,0-1.2-0.5-1.1-1.1c0.1-0.4,0.2-0.8,0.2-1
					L118,26.4z"/>
				<path class="st9" d="M125.6,29.1c-0.3,2.2-0.5,3.4-0.5,4.2c0,0.6-0.6,1-1.2,1h-0.1c-0.5,0-0.9-0.6-0.8-1.1v-0.1
					c0.1-0.5,0.2-1.1,0.3-2l0.3-2.1c0.4-2.9,0.6-4.3,0.6-5.1c0-0.5,0.1-1.1,0.7-1.1c0.2,0,0.4-0.1,0.6-0.1c0.5-0.2,1,0.4,0.9,0.9
					c0,0.1,0,0.2-0.1,0.3c-0.1,0.4-0.2,0.9-0.3,1.6L125.6,29.1z M124.8,21.5c0.5,0,1.2-0.2,1.7-0.6c0.8-0.8,1-0.9,1.1-1.3
					c0.1-0.6-0.3-1-0.9-1c-0.9,0-1.1,0.5-1.2,1.1c-0.1,0.5-0.4,0.9-0.8,1.3C124.5,21.1,124.4,21.5,124.8,21.5z"/>
				<path class="st9" d="M135.1,22.7c0.6-0.2,1.2,0.4,1.1,0.9c-0.1,0.7-0.3,1.8-0.6,3.8l-0.3,2.1c-0.2,1.8-0.4,3.2-0.4,3.9
					c0,0.5-0.6,0.9-1.2,0.9c-0.6,0-1.2-0.4-1.1-1c0-0.4,0.1-0.9,0.1-1.3c-0.7,1.2-1.7,2.5-3,2.5c-1.5,0-2.9-1.2-2.9-3.6
					c0-1,0.5-4.9,3.1-7.4c0.4-0.4,1.5-1.2,3.1-1.2c0.8,0,1.4,0.2,1.9,0.5L135.1,22.7z M133.7,24.1c-0.3-0.1-0.7-0.3-1.1-0.3
					c-2.7,0-3.4,4.6-3.4,6.4c0,1.5,0.3,2.5,1.2,2.5c0.5,0,1.2-0.3,1.8-1.4c0.5-0.8,0.8-2,1.1-4.2L133.7,24.1z"/>
				<path class="st9" d="M62.5,44.3c0,0.2,0,0.3-0.1,0.4c-0.1,0.9-0.3,2-0.3,2.8c0,0.5-0.4,0.9-0.9,0.9s-1-0.4-1-0.9
					c0-0.2,0-0.1,0.1-0.6c-0.5,0.9-1.2,1.7-2.2,1.7c-1.3,0-2.4-1-2.4-3c0-0.5,0.2-2.9,1.5-4.8c0.8-1.2,2.1-2,3.4-2
					c0.3,0,0.6,0.1,0.8,0.1c0.1-0.8,0.2-1.3,0.2-1.7c0-0.5,0.3-0.9,0.8-1c0,0,0.1,0,0.2,0c0.6-0.1,1.1,0.2,1,0.7
					c-0.1,0.2-0.1,0.4-0.1,0.7c0,0.2-0.1,0.4-0.1,0.6c0,0.1,0,0.3-0.1,0.4c0,0.2-0.1,0.3-0.1,0.5L62.5,44.3z M57.7,45.1
					c0,1.2,0.3,2.1,1,2.1c0.4,0,1-0.4,1.5-1.6c0.4-0.9,0.5-1.9,1.1-5.4C61,40.1,60.8,40,60.5,40C58.2,40,57.7,44,57.7,45.1z"/>
				<path class="st9" d="M67,47.5c0.5,0,0.9-0.2,1.3-0.3c0.4-0.2,0.8,0.1,0.7,0.4c-0.1,0.4-0.4,0.8-0.9,0.9
					c-0.4,0.1-0.8,0.2-1.4,0.2c-2.5-0.1-3.1-1.7-3.1-3.9c0-1.9,0.8-3.4,1.3-4.1c1-1.5,2.4-2,3.4-2c1.5,0,2.3,0.9,2.3,2.1
					c0,0.5-0.2,1.2-0.5,1.7c-0.3,0.6-1,1.1-1.5,1.4c-0.9,0.6-1.9,0.6-2.9,0.7c0,0.1,0,0.3,0,0.6C65.5,46.1,65.7,47.5,67,47.5z
					 M65.6,44.2c0.8-0.1,1.6-0.8,2.3-1.6c0.3-0.4,0.6-1,0.6-1.7s-0.3-1.1-0.7-1.1c-0.2,0-0.7,0.1-1.3,1
					C66.1,41.5,65.7,42.8,65.6,44.2z"/>
				<path class="st9" d="M72.3,48.5c-1.6,0-1.8-1.2-1.7-2.1c0-0.3,0.1-0.7,0.1-1c0,0,0,0,0-0.1c0-0.2,0-0.4,0-0.4c0-0.1,0-0.2,0-0.3
					s0-0.2,0-0.2c0-0.1,0-0.2,0.1-0.3c0.1-0.4,0.2-1.1,0.5-3.4c0.3-1.8,0.4-3,0.4-3.6c0-0.4,0.2-0.9,0.7-1c0.1,0,0.3,0,0.4-0.1
					c0.5-0.2,1,0.3,0.9,0.7s-0.2,1-0.3,1.7c0,0.1,0,0.3-0.1,0.4c0,0.3-0.1,0.6-0.1,0.9c-0.1,0.7-0.2,1.6-0.3,2.3
					c-0.1,0.8-0.2,1.6-0.3,2.3c0,0.1,0,0.1,0,0.2c0,0.2,0,0.4-0.1,0.6v0.1c-0.1,0.6-0.2,1.2-0.1,1.5c0,0,0.1,0.4,0.3,0.5
					c0.2,0,0.3,0,0.5-0.1c0,0,0.1,0,0.1-0.1c0.4-0.2,0.7,0.2,0.6,0.6c-0.1,0.4-0.5,0.7-1,0.8C72.8,48.5,72.6,48.5,72.3,48.5z"/>
				<path class="st9" d="M79,41.1c0.3-1.7,0.4-2.7,0.4-3.3c0.1-0.7,0.5-1.4,1.4-1.4h0.3c0.5,0,1.1,0,1.7,0H83c0.4,0,1,0,1.2,0
					c2.3,0,4.2,0.8,4.2,3.8c0,1.1-0.4,6.5-6.6,6.5h-0.9c-0.2,1.4-0.4,2.8-0.6,4.3v0.1c0,0,0,0,0,0.1l0,0c0,0.2,0,0.4-0.1,0.6
					c-0.1,0.7-0.7,1.4-1.5,1.4h-0.3c-0.7,0-1.2-0.6-1.1-1.3c0.3-1,0.5-2.2,0.7-3.3c0-0.1,0-0.2,0.1-0.3L79,41.1z M81.1,44.8h0.4
					c0.9,0,1.8-0.2,2.4-0.5l0,0c1.4-0.9,1.6-3.1,1.6-4c0-2.3-1.5-2.3-2.4-2.3h-0.2c-0.1,0-0.2,0-0.3,0h-0.2c-0.1,0,0,0-0.1,0
					c-0.2,1-0.3,1.6-0.4,2.1v0.1c0,0.1,0,0.2-0.1,0.3c0,0.2-0.1,0.4-0.1,0.6L81.1,44.8z"/>
				<path class="st9" d="M90.8,47.5c-0.2,1.2-0.3,1.8-0.3,2.3c0,0.9,0.3,1.6,1,1.6c0.3,0,1.4-0.2,2.2-1.8l0,0
					c0.4-0.9,0.9-3.1,1.1-4.9c0.2-1.4,0.3-2.3,0.3-2.9c0-0.7,0.5-1.3,1.2-1.5h0.1l0,0c0.1-0.1,0.3-0.1,0.4-0.1
					c0.6-0.1,1.3,0.4,1.2,0.9c-0.3,1.2-0.6,2.7-0.9,4.9c-0.5,3.3-0.7,4.9-0.7,5.7v0.2c0,0.6-0.6,1.2-1.3,1.2c-0.7,0-1.4-0.6-1.4-1.3
					v-0.3c-0.2,0.4-0.5,0.7-0.8,1c-0.9,0.7-2.1,0.8-2.4,0.8c-1.5,0-2.8-0.9-2.8-2.6c0-0.3,0-0.7,0.2-1.5l1-6.3
					c0.1-0.4,0.1-0.8,0.1-1.1c0-0.6,0.3-1.3,1.1-1.5l0,0c0,0,0.1,0,0.2,0h0.1l0,0c0.1,0,0.2,0,0.3,0c0.7-0.1,1.3,0.5,1.2,1.1
					c-0.2,1-0.3,1.4-0.4,2.2c0,0.1-0.1,0.3-0.1,0.4L90.8,47.5z"/>
				<path class="st9" d="M103.1,51.8c0.7,0,1.3-0.2,1.8-0.5s1.1,0.1,1,0.6s-0.5,1-1.2,1.3c-0.5,0.1-1.1,0.2-1.9,0.2
					c-3.4-0.1-4.2-2.3-4.3-5.3c0-2.5,1.1-4.7,1.7-5.6c1.4-2,3.3-2.7,4.7-2.7c2.1,0,3.1,1.3,3.1,2.9c0,0.7-0.3,1.6-0.7,2.4
					c-0.5,0.9-1.3,1.5-2,1.9c-1.2,0.8-2.5,0.9-4,0.9c0,0.1,0,0.4,0,0.9C101.1,50,101.4,51.9,103.1,51.8z M101.2,47.4
					c1.1-0.2,2.2-1,3.2-2.2c0.4-0.5,0.8-1.4,0.8-2.3c0-1-0.4-1.5-0.9-1.5c-0.3,0-1,0.2-1.8,1.4C101.9,43.6,101.4,45.4,101.2,47.4z"
					/>
				<path class="st9" d="M108.9,44.1c0.4-2.5,0.7-4.6,0.7-5.9c0-0.2,0-0.4,0-0.5c0-0.6,0.3-1.2,1-1.3c0.2,0,0.4-0.1,0.6-0.1
					c0.7-0.2,1.5,0.2,1.4,0.9c0,0.2-0.1,0.4-0.1,0.7c0,0.2-0.1,0.5-0.1,0.7c-0.1,0.4-0.1,0.9-0.2,1.5c-0.1,0.5-0.1,1-0.2,1.5
					c0,0.2-0.1,0.4-0.1,0.6c0.7-1,1.7-2.2,2.9-2.2c1.7,0,3.2,1.3,3.2,4.1c0,0.9-0.1,1.7-0.3,2.6c-0.9,4-3.3,6.9-7.1,6.9
					c-0.9,0-1.5-0.1-2-0.3l0,0c-0.8-0.2-1.1-1.1-0.9-1.9c0.1-0.6,0.3-1.4,0.5-2.8L108.9,44.1z M111.9,43.9c-0.9,1.9-1.3,5.6-1.5,8
					c0.3,0.1,0.5,0.1,0.8,0.1c3.6,0,4-5.8,4-7.1c0-1.5-0.4-2.8-1.3-2.8C113.2,42.1,112.5,42.8,111.9,43.9z"/>
				<path class="st9" d="M120.9,53.3c-2.2,0-2.4-1.6-2.3-2.8c0-0.5,0.1-1,0.1-1.4c0,0,0,0,0-0.1c0-0.3,0.1-0.5,0.1-0.6
					s0-0.3,0.1-0.4c0-0.1,0-0.2,0-0.3s0.1-0.3,0.1-0.5c0.1-0.5,0.2-1.5,0.6-4.6c0.4-2.5,0.5-4.2,0.5-4.9c0-0.5,0.3-1.2,1-1.3
					c0.2,0,0.4-0.1,0.6-0.1c0.7-0.2,1.3,0.4,1.3,1c-0.1,0.6-0.2,1.3-0.3,2.3c0,0.2,0,0.4-0.1,0.5c-0.1,0.4-0.1,0.8-0.2,1.2
					c-0.1,1-0.3,2.1-0.4,3.2c-0.2,1.1-0.3,2.1-0.5,3.2c0,0.1,0,0.2,0,0.3c0,0.2-0.1,0.6-0.1,0.8c0,0,0,0.1,0,0.2
					c-0.1,0.8-0.2,1.6-0.1,2.1c0,0,0.1,0.6,0.4,0.6s0.5,0,0.7-0.2c0,0,0.1,0,0.2-0.1c0.5-0.2,1,0.3,0.8,0.8s-0.7,0.9-1.4,1
					C121.6,53.2,121.2,53.3,120.9,53.3z"/>
				<path class="st9" d="M133.3,41.1c1,1.2,1.1,2.6,1.1,3.3c0,3.7-2,9-6.4,9c-1.1,0-2.2-0.4-3-1.2c-0.5-0.5-1.2-1.6-1.2-3.7
					c0-3.8,2.1-8.7,6.5-8.7C131.6,39.9,132.7,40.3,133.3,41.1z M131.1,42.1c-0.2-0.3-0.6-0.6-1.2-0.6c-2.8,0-3.5,5.5-3.5,7.3
					c0,2.2,0.8,3,1.7,3c3.1,0,3.5-6.4,3.5-7.5C131.6,43.7,131.6,42.7,131.1,42.1z"/>
			</g>
		</g>
	</g>
</g>
</svg>
